<?xml version='1.0' encoding='utf-8'?>
<svg xmlns="http://www.w3.org/2000/svg" width="210mm" height="297mm" style="shape-rendering:geometricPrecision; text-rendering:geometricPrecision; image-rendering:optimizeQuality; fill-rule:evenodd; clip-rule:evenodd" viewBox="0 0 210 297"> <defs> <style type="text/css">  .str0 {stroke:#36302F;stroke-width:0.0762} .fil2 {fill:none} .fil1 {fill:#A4A2A1} .fil0 {fill:#FEFFFF}  </style> </defs> <g id="Warstwa_x0020_1"> <metadata id="CorelCorpID_0Corel-Layer"/> <path class="fil0 str0" d="M100.326 149.495l-0.0111 0.0237c-0.5007,1.0742 -0.8586,2.4336 -1.8376,3.5277 -1.3308,1.4866 -4.2922,2.3332 -5.9754,2.6674 -1.6994,0.3375 -3.4808,-0.1464 -4.9745,-0.8524l-0.0245 -0.0118c-1.6442,-0.7819 -2.9358,-1.8306 -3.3762,-2.3454 -0.2824,-0.3297 -1.8183,-1.9275 -2.1409,-3.8873 -0.294,-1.7845 0.5614,-3.9061 1.4746,-4.9218 2.0576,-2.289 8.6193,-0.5002 11.4406,-1.3797 2.9133,-0.9084 0.9302,-4.5488 0.5613,-5.1284 -1.3982,-2.1969 -3.6522,-4.1971 -5.6999,-6.2441 9.505,-5.7412 17.6605,-8.6643 23.5625,-8.5518 2.9294,0.4331 -1.8753,7.0427 0.2983,8.4335 1.9404,1.2416 7.2386,1.3478 12.5752,-0.1285 5.0127,-1.3866 10.1494,-4.2208 9.8442,-7.2899 -0.4072,-4.0903 -8.3532,-3.9568 -10.289,-5.6717 -0.7229,-0.6403 -0.6114,-1.4545 0.2449,-1.8087 2.1584,-0.8929 8.4292,-1.8315 11.4548,-3.552 2.7567,-1.5677 5.2628,-2.9816 7.2388,-4.733 1.8762,5.2133 10.5897,12.0884 17.0008,12.9388 3.8464,0.5101 5.9571,-7.5951 9.6975,-8.211 2.9121,-0.4797 6.3697,1.3423 8.4916,3.9061l0.0007 0.0006c1.153,1.393 1.9121,3.0051 1.9742,4.586 0.0974,2.4882 -1.933,4.8458 -4.7929,5.4934 -1.2147,0.2748 -2.77,0.2414 -4.7284,-0.2215 -1.3893,-0.3283 -2.4737,-0.5831 -3.1646,-0.4123 -0.4576,0.113 -0.6015,0.2379 -1.0559,1.2813 -0.828,1.9008 -0.6506,3.9954 0.1668,5.9185 1.0897,2.5644 3.606,5.1128 7.5487,7.6449 -8.0996,3.9919 -16.9089,8.9217 -21.0597,7.6931 -1.1945,-0.8235 -0.8735,-2.4802 -0.6671,-3.5831 0.369,-1.9738 0.8907,-3.6315 -0.3147,-4.4899 -3.1366,-2.2328 -9.9816,-0.7296 -12.6965,0.8942 -1.5848,0.948 -5.6721,4.4646 -5.0628,6.3843 0.4285,1.3497 3.2346,2.1457 6.5146,2.4642 1.4513,0.141 4.2621,1.033 3.7163,2.4173 -2.9832,4.3427 -13.807,10.0378 -25.7361,11.6721 -3.5044,-5.0522 -7.3815,-9.6276 -13.0832,-13.8376 5.7017,4.21 9.5788,8.7854 13.0832,13.8376 -3.5044,-5.0522 -7.3815,-9.6276 -13.0832,-13.8376 -0.4668,-0.3447 -1.9683,-1.6184 -3.5052,-2.1744l-0.0235 -0.0084c-0.7907,-0.2824 -1.5895,-0.3727 -2.2598,-0.0472 -0.631,0.3063 -1.0086,0.8676 -1.3269,1.5448z"/> <path class="fil0 str0" d="M51.9095 191.369l0.0119 0.0123 0.0524 0.054c0.8323,-0.3806 1.6648,-0.7592 2.4976,-1.1349 0.2102,-0.0948 0.4205,-0.1894 0.6307,-0.2839l-3.1926 1.3525z"/> <polygon class="fil0 str0" points="66.9926,149.935 61.8338,143.652 56.7338,137.44 63.8619,134.195 56.7338,137.44 61.8338,143.652 66.9926,149.935 72.841,157.058 "/> <path class="fil0 str0" d="M90.3842 131.558c-0.2086,-0.2044 -0.4161,-0.4093 -0.6214,-0.6146l-0.0044 0.0026 -0.1513 0.0913c-1.6425,0.9958 -3.3362,2.0192 -5.1107,3.015l-0.036 0.0201c-3.8883,2.1801 -8.1636,4.2266 -13.1328,5.5662l-0.0509 0.0137c-0.3092,0.083 -0.6213,0.1634 -0.9358,0.2408 -0.2691,0.0778 -0.525,0.1466 -0.7751,0.2115 -8.1923,2.1228 -6.3171,-2.5928 -5.7039,-5.9093 0.2529,-1.3685 0.2906,-2.4992 -0.685,-2.8105 -4.3014,-1.3729 -8.2362,-0.0694 -9.7443,0.5284 -1.6876,0.6688 -6.3375,2.6093 -6.2349,6.1242 0.0904,3.1033 13.8577,3.607 9.3099,7.8712 -0.0074,0.0069 -0.0162,0.0144 -0.0237,0.0216 -0.3008,0.2789 -0.6785,0.5737 -1.1445,0.8866 -8.3039,5.3929 -17.6597,9.3839 -27.887,12.2126 0.9907,2.294 2.2237,4.3276 3.7182,6.0805 2.3104,2.7096 5.2455,4.7477 8.879,6.036 0.8155,-0.2195 1.5146,-0.7083 2.144,-1.3367 2.0478,-2.0441 3.3589,-5.5673 5.538,-6.1262 1.6119,-0.4133 3.0199,-0.184 4.3256,0.039 0.143,0.0244 0.2848,0.0487 0.4255,0.0721 1.5906,0.2649 2.9985,0.7591 4.2628,1.4738 0.8984,0.5077 1.7243,1.1267 2.4922,1.8537 0.8889,0.8412 1.4902,1.7647 1.8353,2.7421l0.0041 0.0115c0.2212,0.6302 0.3358,1.2829 0.3525,1.95 0.0333,1.3275 -0.0549,2.6746 -2.1777,4.2633 -1.8551,1.3886 -9.2232,-1.0245 -12.2786,0.6347 -1.5951,3.3043 -1.3807,5.9178 -0.2901,8.1967l0.0072 0.0146c1.1409,2.3737 3.2317,4.3849 5.2192,6.4355l3.1926 -1.3526c4.075,-1.8306 8.1566,-3.5894 12.2525,-5.1902 0.1332,-0.0521 0.2665,-0.1041 0.3998,-0.1557 3.7648,-1.4614 7.5416,-2.7868 11.3371,-3.9094 8.6369,-2.1278 7.4125,1.9028 7.073,5.3819l-0.0011 0.0104 -0.0009 0.0096c-0.1952,2.0214 0.5692,3.8523 2.0482,4.1741 1.8309,0.3987 3.9133,0.2086 6.3111,-0.7207 2.3463,-0.909 5.7163,-2.0935 8.7271,-4.559 1.4834,-1.2145 2.2491,-3.1897 0.1561,-4.0367 -0.7925,-0.321 -1.8252,-0.6208 -2.9021,-0.9448l-0.0094 -0.0028c-2.7855,-0.838 -5.8628,-1.8381 -5.8412,-3.7811 0.0255,-2.3184 3.2134,-4.1233 7.4487,-6.1792l0.0919 -0.0446c0.1576,-0.0762 0.3161,-0.1529 0.4763,-0.23 2.4835,-1.1944 5.3057,-2.4585 8.3948,-3.5278l0.0449 -0.0154c2.8375,-0.9799 5.8992,-1.7942 9.1312,-2.2383 0.0451,-0.0062 0.0897,-0.0124 0.1347,-0.0185 0.0502,-0.0067 0.0999,-0.0142 0.1501,-0.0209 -0.3075,-0.4433 -0.6177,-0.8825 -0.9319,-1.3183l-0.0007 -0.0014c-1.6105,-2.2345 -3.322,-4.3749 -5.2671,-6.4308l-0.001 -0.0013c-1.9905,-2.1042 -4.2251,-4.1202 -6.8455,-6.0583l-0.0021 -0.0017 -0.0349 -0.0258c-0.7094,-0.5239 -3.8074,-3.1918 -5.7885,-2.23 -1.6357,0.794 -1.5696,3.3017 -3.1756,5.0962 -1.3308,1.4866 -4.2922,2.3332 -5.9754,2.6674 -3.5834,0.7113 -7.5331,-2.2258 -8.3752,-3.2096 -0.1078,-0.1256 -0.3971,-0.4355 -0.7325,-0.8794l-0.0141 -0.0187c-0.4444,-0.5914 -0.965,-1.4153 -1.247,-2.3565 -0.0616,-0.2058 -0.1119,-0.4172 -0.1473,-0.6327 -0.294,-1.7845 0.5614,-3.9061 1.4746,-4.9218 1.6259,-1.8085 6.0632,-1.0714 9.2459,-1.1163 0.8455,-0.0117 1.6028,-0.0788 2.1947,-0.2634 1.1996,-0.3741 1.5688,-1.2113 1.5626,-2.107 -0.006,-0.8982 -0.3894,-1.8554 -0.693,-2.4645 -0.1288,-0.2589 -0.2436,-0.4553 -0.3083,-0.5569 -1.2576,-1.9758 -3.2066,-3.7923 -5.0761,-5.6269l-0.0024 -0.0026z"/> <path class="fil1 str0" d="M181.003 117.931l0.0006 -0.0003 0.005 0.0108 -0.0056 -0.0105zm0.5386 1.2473c1.7007,4.2551 1.4479,7.2758 -0.5476,9.1957 -1.1814,1.1366 -3.4993,1.9461 -6.0073,2.0676 -2.2883,0.1109 -4.7473,-0.3216 -7.3557,0.1024 -0.1461,-1.1978 -0.0106,-2.4043 0.4847,-3.5414 0.4545,-1.0435 0.5984,-1.1685 1.0561,-1.2815 0.6909,-0.1708 1.7752,0.084 3.1644,0.4123 1.9586,0.4629 3.5139,0.4964 4.7286,0.2215 2.8599,-0.6475 4.8902,-3.0051 4.7927,-5.4932 -0.0219,-0.5611 -0.1318,-1.1259 -0.3159,-1.6834z"/> <path class="fil1 str0" d="M175.831 140.566l0.0962 3.7503c-4.0735,2.7135 -8.2038,5.0051 -12.4068,6.5866 -1.5472,0.5821 -9.014,3.5554 -9.8959,1.3306 -0.5948,-1.5007 -0.3791,-4.128 -0.0964,-6.1081 0.269,-1.8845 -1.2368,-2.435 -2.0792,-2.544 -3.4613,-0.4479 -10.438,0.1789 -14.1668,5.1046 -0.656,-0.341 -1.1011,-0.7469 -1.2517,-1.2216 -0.6093,-1.9196 3.4778,-5.4363 5.0627,-6.3842 2.7148,-1.6238 9.5599,-3.1272 12.6964,-0.8942 1.2056,0.8582 0.6839,2.5161 0.3146,4.4897 -0.2063,1.1031 -0.5272,2.7598 0.6674,3.5833 4.1508,1.2286 12.9599,-3.7012 21.0595,-7.693z"/> <path class="fil1 str0" d="M27.4524 159.029l-0.4087 4.3754c2.602,5.5987 6.1336,9.085 10.3453,11.0288 0.7776,0.3589 2.743,1.184 4.2274,0.0862 1.9085,-1.4115 3.4934,-4.9971 5.7165,-6.2172 4.1413,-2.2728 13.1124,1.0615 13.4403,6.2604 0.6467,-0.9647 0.6786,-1.8556 0.6565,-2.7377 -0.0428,-1.7066 -0.7272,-3.3172 -2.1919,-4.7037 -1.8491,-1.7503 -4.0342,-2.8743 -6.7551,-3.3275 -1.4253,-0.2373 -2.9629,-0.5697 -4.7511,-0.1111 -2.8491,0.7307 -4.2145,6.529 -7.682,7.4629 -5.984,-2.1216 -10.0749,-6.2767 -12.5972,-12.1165z"/> <path class="fil1 str0" d="M47.7633 135.9l-0.0007 -0.0004 -0.0176 0.0316 0.0183 -0.0312zm-0.054 0.095c-2.913,5.1944 -1.8216,7.0502 0.3704,7.9881 2.1522,0.9208 5.2839,1.584 6.7939,3.1334 0.1557,-0.0997 0.3109,-0.1995 0.4659,-0.3001 7.6195,-5.1168 -8.0454,-5.4685 -8.1419,-8.7794 -0.0219,-0.7518 0.1742,-1.4314 0.5117,-2.042z"/> <path class="fil1 str0" d="M63.031 131.339l0.0001 -0.0004c1.3592,0.2432 1.7752,1.5982 1.6903,3.5436 -0.061,1.3965 -0.0557,3.8367 -0.6641,5.2058 -2.4412,-1.8669 1.5927,-7.9145 -0.8803,-8.7038 -0.0487,-0.0156 -0.0974,-0.0304 -0.146,-0.0452z"/> <path class="fil1 str0" d="M113.325 122.391c0.8733,0.1222 1.3169,0.8176 1.4604,1.9128 0.1505,1.1489 -0.053,5.2924 -0.4758,6.8609 -0.2605,-0.1017 -0.4907,-0.215 -0.6863,-0.3402 -2.1738,-1.3908 2.6309,-8.0005 -0.2983,-8.4335z"/> <path class="fil1 str0" d="M125.999 115.926c-1.1393,0.4473 -1.6988,2.1265 -1.5588,5.2925 0.0935,2.1479 7.6231,2.4369 10.5366,4.8779 0.7514,-0.8528 1.1588,-1.7606 1.0662,-2.6902 -0.4071,-4.0902 -8.3531,-3.9567 -10.289,-5.6716 -0.7228,-0.6403 -0.6113,-1.4543 0.245,-1.8086z"/> <path class="fil1 str0" d="M46.9733 176.723c-4.407,7.1951 -1.41,13.1182 4.9524,18.4632 5.0361,-0.812 21.7492,-9.5767 28.4946,-10.2183 7.4979,-0.7131 3.2228,5.1553 4.3796,7.3012 1.2315,2.2844 3.398,2.2862 6.6761,2.0137 6.0963,-0.5069 12.0444,-2.8656 13.7308,-6.6959 0.4298,-0.9764 0.4929,-3.5095 0.3166,-4.416 -0.1792,-0.9211 -0.4753,-1.3967 -1.4729,-1.7902l-0.0004 -0.0002c1.2491,0.9611 0.5002,2.612 -0.8011,3.6777 -3.0108,2.4655 -6.3807,3.6498 -8.727,4.559 -2.3979,0.9292 -4.4803,1.1192 -6.3113,0.7207 -1.479,-0.3219 -2.2434,-2.1528 -2.0481,-4.1743 0.3367,-3.4836 1.5823,-7.5336 -7.071,-5.4018 -9.1176,2.6966 -18.1287,6.5638 -27.1178,10.6741 -3.915,-4.046 -8.2795,-7.9202 -5.0005,-14.7129z"/> <path class="fil1 str0" d="M146.328 152.057l0.0006 -0.0003 0.2212 4.9768c-3.0351,2.4772 -6.5193,4.5953 -10.2945,6.4805 -12.1393,6.0618 -25.0527,3.7059 -40.0956,14.8765 -0.9149,-0.5592 -1.5166,-1.2356 -1.5071,-2.098 0.0267,-2.421 3.5016,-4.2822 8.017,-6.4538 4.8066,-2.3116 10.8803,-4.8853 17.7057,-5.8001 11.9884,-1.6069 22.8904,-7.3322 25.886,-11.693 0.039,-0.0989 0.0602,-0.1949 0.0667,-0.2886z"/> <line class="fil2 str0" x1="120.525" y1="164.018" x2="120.731" y2="168.261"/> </g> </svg>